<mxfile host="app.diagrams.net" modified="2024-03-04T03:57:16.473Z" agent="Mozilla/5.0 (Windows NT 10.0; Win64; x64) AppleWebKit/537.36 (KHTML, like Gecko) Chrome/122.0.0.0 Safari/537.36" etag="-AOjQILbtTSS1xbNO_sR" version="24.0.1" type="device">
  <diagram name="PÃ¡gina-1" id="2ZbC8bzHMK0dm3fhxQmK">
    <mxGraphModel dx="2446" dy="1234" grid="0" gridSize="10" guides="1" tooltips="1" connect="1" arrows="1" fold="1" page="0" pageScale="1" pageWidth="827" pageHeight="1169" math="0" shadow="0">
      <root>
        <mxCell id="0" />
        <mxCell id="1" parent="0" />
        <mxCell id="F0Z5WMHJScBI__uV08e7-1" value="Identificador" style="rounded=0;whiteSpace=wrap;html=1;" vertex="1" parent="1">
          <mxGeometry x="-167" y="-162.75" width="130" height="47.75" as="geometry" />
        </mxCell>
        <mxCell id="F0Z5WMHJScBI__uV08e7-2" value="Programa" style="text;strokeColor=none;fillColor=none;html=1;align=center;verticalAlign=middle;whiteSpace=wrap;rounded=0;fontSize=16;" vertex="1" parent="1">
          <mxGeometry x="-519" y="-152" width="51" height="29" as="geometry" />
        </mxCell>
        <mxCell id="F0Z5WMHJScBI__uV08e7-3" style="edgeStyle=none;curved=1;rounded=0;orthogonalLoop=1;jettySize=auto;html=1;exitX=1;exitY=0.5;exitDx=0;exitDy=0;fontSize=12;startSize=8;endSize=8;" edge="1" parent="1" source="F0Z5WMHJScBI__uV08e7-2" target="F0Z5WMHJScBI__uV08e7-2">
          <mxGeometry relative="1" as="geometry" />
        </mxCell>
        <mxCell id="F0Z5WMHJScBI__uV08e7-4" value="" style="edgeStyle=none;orthogonalLoop=1;jettySize=auto;html=1;rounded=0;fontSize=12;startSize=8;endSize=8;curved=1;entryX=0;entryY=0.5;entryDx=0;entryDy=0;" edge="1" parent="1" target="F0Z5WMHJScBI__uV08e7-8">
          <mxGeometry width="140" relative="1" as="geometry">
            <mxPoint x="-444" y="-138" as="sourcePoint" />
            <mxPoint x="-373" y="-138" as="targetPoint" />
            <Array as="points" />
          </mxGeometry>
        </mxCell>
        <mxCell id="F0Z5WMHJScBI__uV08e7-5" value="Bloque" style="text;strokeColor=none;fillColor=none;html=1;align=center;verticalAlign=middle;whiteSpace=wrap;rounded=0;fontSize=16;" vertex="1" parent="1">
          <mxGeometry x="-519" y="-55.25" width="51" height="29" as="geometry" />
        </mxCell>
        <mxCell id="F0Z5WMHJScBI__uV08e7-6" style="edgeStyle=none;curved=1;rounded=0;orthogonalLoop=1;jettySize=auto;html=1;exitX=1;exitY=0.5;exitDx=0;exitDy=0;fontSize=12;startSize=8;endSize=8;" edge="1" parent="1" source="F0Z5WMHJScBI__uV08e7-5" target="F0Z5WMHJScBI__uV08e7-5">
          <mxGeometry relative="1" as="geometry" />
        </mxCell>
        <mxCell id="F0Z5WMHJScBI__uV08e7-7" value="" style="edgeStyle=none;orthogonalLoop=1;jettySize=auto;html=1;rounded=0;fontSize=12;startSize=8;endSize=8;curved=1;" edge="1" parent="1">
          <mxGeometry width="140" relative="1" as="geometry">
            <mxPoint x="-436" y="-41.25" as="sourcePoint" />
            <mxPoint x="-365" y="-41.25" as="targetPoint" />
            <Array as="points" />
          </mxGeometry>
        </mxCell>
        <mxCell id="F0Z5WMHJScBI__uV08e7-16" value="" style="edgeStyle=none;curved=1;rounded=0;orthogonalLoop=1;jettySize=auto;html=1;fontSize=12;startSize=8;endSize=8;" edge="1" parent="1" source="F0Z5WMHJScBI__uV08e7-8" target="F0Z5WMHJScBI__uV08e7-1">
          <mxGeometry relative="1" as="geometry" />
        </mxCell>
        <mxCell id="F0Z5WMHJScBI__uV08e7-8" value="Programita" style="ellipse;whiteSpace=wrap;html=1;" vertex="1" parent="1">
          <mxGeometry x="-364" y="-162.75" width="124" height="50.5" as="geometry" />
        </mxCell>
        <mxCell id="F0Z5WMHJScBI__uV08e7-9" value="" style="ellipse;whiteSpace=wrap;html=1;" vertex="1" parent="1">
          <mxGeometry x="-364" y="-66" width="124" height="50.5" as="geometry" />
        </mxCell>
        <mxCell id="F0Z5WMHJScBI__uV08e7-11" value="" style="edgeStyle=none;orthogonalLoop=1;jettySize=auto;html=1;rounded=0;fontSize=12;startSize=8;endSize=8;curved=1;" edge="1" parent="1">
          <mxGeometry width="140" relative="1" as="geometry">
            <mxPoint x="-238" y="-42.25" as="sourcePoint" />
            <mxPoint x="-167" y="-42.25" as="targetPoint" />
            <Array as="points" />
          </mxGeometry>
        </mxCell>
        <mxCell id="F0Z5WMHJScBI__uV08e7-12" value="Identificador&lt;div&gt;&lt;br&gt;&lt;/div&gt;" style="rounded=0;whiteSpace=wrap;html=1;" vertex="1" parent="1">
          <mxGeometry x="-167" y="-66" width="130" height="47.75" as="geometry" />
        </mxCell>
        <mxCell id="F0Z5WMHJScBI__uV08e7-14" value="" style="edgeStyle=none;orthogonalLoop=1;jettySize=auto;html=1;rounded=0;fontSize=12;startSize=8;endSize=8;curved=1;" edge="1" parent="1">
          <mxGeometry width="140" relative="1" as="geometry">
            <mxPoint x="-37" y="-139.38" as="sourcePoint" />
            <mxPoint x="34" y="-139.38" as="targetPoint" />
            <Array as="points" />
          </mxGeometry>
        </mxCell>
        <mxCell id="F0Z5WMHJScBI__uV08e7-17" value="" style="ellipse;whiteSpace=wrap;html=1;" vertex="1" parent="1">
          <mxGeometry x="36" y="-178.88" width="80" height="80" as="geometry" />
        </mxCell>
        <mxCell id="F0Z5WMHJScBI__uV08e7-18" value="Bloque" style="rounded=0;whiteSpace=wrap;html=1;" vertex="1" parent="1">
          <mxGeometry x="189" y="-162.76" width="130" height="47.75" as="geometry" />
        </mxCell>
        <mxCell id="F0Z5WMHJScBI__uV08e7-19" value="" style="edgeStyle=none;curved=1;rounded=0;orthogonalLoop=1;jettySize=auto;html=1;fontSize=12;startSize=8;endSize=8;" edge="1" parent="1" target="F0Z5WMHJScBI__uV08e7-18">
          <mxGeometry relative="1" as="geometry">
            <mxPoint x="116" y="-137.01" as="sourcePoint" />
          </mxGeometry>
        </mxCell>
        <mxCell id="F0Z5WMHJScBI__uV08e7-20" value="" style="edgeStyle=none;orthogonalLoop=1;jettySize=auto;html=1;rounded=0;fontSize=12;startSize=8;endSize=8;curved=1;" edge="1" parent="1">
          <mxGeometry width="140" relative="1" as="geometry">
            <mxPoint x="319" y="-139.37" as="sourcePoint" />
            <mxPoint x="390" y="-139.37" as="targetPoint" />
            <Array as="points" />
          </mxGeometry>
        </mxCell>
        <mxCell id="F0Z5WMHJScBI__uV08e7-21" value="" style="ellipse;whiteSpace=wrap;html=1;" vertex="1" parent="1">
          <mxGeometry x="392" y="-178.87" width="80" height="80" as="geometry" />
        </mxCell>
        <mxCell id="F0Z5WMHJScBI__uV08e7-22" value="" style="edgeStyle=none;curved=1;rounded=0;orthogonalLoop=1;jettySize=auto;html=1;fontSize=12;startSize=8;endSize=8;" edge="1" parent="1">
          <mxGeometry relative="1" as="geometry">
            <mxPoint x="472" y="-138.39" as="sourcePoint" />
            <mxPoint x="545" y="-139.38" as="targetPoint" />
          </mxGeometry>
        </mxCell>
        <mxCell id="F0Z5WMHJScBI__uV08e7-24" value="" style="edgeStyle=none;orthogonalLoop=1;jettySize=auto;html=1;rounded=0;fontSize=12;startSize=8;endSize=8;curved=1;" edge="1" parent="1">
          <mxGeometry width="140" relative="1" as="geometry">
            <mxPoint x="-37" y="-41.25" as="sourcePoint" />
            <mxPoint x="34" y="-41.25" as="targetPoint" />
            <Array as="points" />
          </mxGeometry>
        </mxCell>
        <mxCell id="F0Z5WMHJScBI__uV08e7-25" value="" style="ellipse;whiteSpace=wrap;html=1;" vertex="1" parent="1">
          <mxGeometry x="36" y="-80.75" width="80" height="80" as="geometry" />
        </mxCell>
        <mxCell id="F0Z5WMHJScBI__uV08e7-26" value="Constante" style="rounded=0;whiteSpace=wrap;html=1;" vertex="1" parent="1">
          <mxGeometry x="189" y="-64.63" width="130" height="47.75" as="geometry" />
        </mxCell>
        <mxCell id="F0Z5WMHJScBI__uV08e7-27" value="" style="edgeStyle=none;curved=1;rounded=0;orthogonalLoop=1;jettySize=auto;html=1;fontSize=12;startSize=8;endSize=8;" edge="1" parent="1" target="F0Z5WMHJScBI__uV08e7-26">
          <mxGeometry relative="1" as="geometry">
            <mxPoint x="116" y="-38.879999999999995" as="sourcePoint" />
          </mxGeometry>
        </mxCell>
        <mxCell id="F0Z5WMHJScBI__uV08e7-28" value="" style="edgeStyle=none;orthogonalLoop=1;jettySize=auto;html=1;rounded=0;fontSize=12;startSize=8;endSize=8;curved=1;" edge="1" parent="1">
          <mxGeometry width="140" relative="1" as="geometry">
            <mxPoint x="319" y="-41.24000000000001" as="sourcePoint" />
            <mxPoint x="390" y="-41.24000000000001" as="targetPoint" />
            <Array as="points" />
          </mxGeometry>
        </mxCell>
        <mxCell id="F0Z5WMHJScBI__uV08e7-29" value="" style="ellipse;whiteSpace=wrap;html=1;" vertex="1" parent="1">
          <mxGeometry x="392" y="-80.74000000000001" width="80" height="80" as="geometry" />
        </mxCell>
        <mxCell id="F0Z5WMHJScBI__uV08e7-30" value="" style="edgeStyle=none;curved=1;rounded=0;orthogonalLoop=1;jettySize=auto;html=1;fontSize=12;startSize=8;endSize=8;" edge="1" parent="1">
          <mxGeometry relative="1" as="geometry">
            <mxPoint x="472" y="-40.25999999999999" as="sourcePoint" />
            <mxPoint x="-409" y="15" as="targetPoint" />
            <Array as="points">
              <mxPoint x="608" y="3" />
              <mxPoint x="362" y="24" />
            </Array>
          </mxGeometry>
        </mxCell>
        <mxCell id="F0Z5WMHJScBI__uV08e7-31" value="" style="edgeStyle=none;orthogonalLoop=1;jettySize=auto;html=1;rounded=0;fontSize=12;startSize=8;endSize=8;curved=1;" edge="1" parent="1">
          <mxGeometry width="140" relative="1" as="geometry">
            <mxPoint x="-214" y="18" as="sourcePoint" />
            <mxPoint x="-214" y="-43" as="targetPoint" />
            <Array as="points" />
          </mxGeometry>
        </mxCell>
        <mxCell id="F0Z5WMHJScBI__uV08e7-32" value="" style="ellipse;whiteSpace=wrap;html=1;" vertex="1" parent="1">
          <mxGeometry x="-362" y="41.75" width="124" height="50.5" as="geometry" />
        </mxCell>
        <mxCell id="F0Z5WMHJScBI__uV08e7-33" value="" style="edgeStyle=none;orthogonalLoop=1;jettySize=auto;html=1;rounded=0;fontSize=12;startSize=8;endSize=8;curved=1;" edge="1" parent="1">
          <mxGeometry width="140" relative="1" as="geometry">
            <mxPoint x="-236" y="65.5" as="sourcePoint" />
            <mxPoint x="-165" y="65.5" as="targetPoint" />
            <Array as="points" />
          </mxGeometry>
        </mxCell>
        <mxCell id="F0Z5WMHJScBI__uV08e7-34" value="Identificador&lt;div&gt;&lt;br&gt;&lt;/div&gt;" style="rounded=0;whiteSpace=wrap;html=1;" vertex="1" parent="1">
          <mxGeometry x="-165" y="41.75" width="130" height="47.75" as="geometry" />
        </mxCell>
        <mxCell id="F0Z5WMHJScBI__uV08e7-35" value="" style="edgeStyle=none;orthogonalLoop=1;jettySize=auto;html=1;rounded=0;fontSize=12;startSize=8;endSize=8;curved=1;" edge="1" parent="1">
          <mxGeometry width="140" relative="1" as="geometry">
            <mxPoint x="-35" y="66.5" as="sourcePoint" />
            <mxPoint x="36" y="66.5" as="targetPoint" />
            <Array as="points" />
          </mxGeometry>
        </mxCell>
        <mxCell id="F0Z5WMHJScBI__uV08e7-36" value="" style="ellipse;whiteSpace=wrap;html=1;" vertex="1" parent="1">
          <mxGeometry x="38" y="27" width="80" height="80" as="geometry" />
        </mxCell>
        <mxCell id="F0Z5WMHJScBI__uV08e7-37" value="Tipo" style="rounded=0;whiteSpace=wrap;html=1;" vertex="1" parent="1">
          <mxGeometry x="191" y="43.120000000000005" width="130" height="47.75" as="geometry" />
        </mxCell>
        <mxCell id="F0Z5WMHJScBI__uV08e7-38" value="" style="edgeStyle=none;curved=1;rounded=0;orthogonalLoop=1;jettySize=auto;html=1;fontSize=12;startSize=8;endSize=8;" edge="1" parent="1" target="F0Z5WMHJScBI__uV08e7-37">
          <mxGeometry relative="1" as="geometry">
            <mxPoint x="118" y="68.87" as="sourcePoint" />
          </mxGeometry>
        </mxCell>
        <mxCell id="F0Z5WMHJScBI__uV08e7-39" value="" style="edgeStyle=none;orthogonalLoop=1;jettySize=auto;html=1;rounded=0;fontSize=12;startSize=8;endSize=8;curved=1;" edge="1" parent="1">
          <mxGeometry width="140" relative="1" as="geometry">
            <mxPoint x="321" y="66.50999999999999" as="sourcePoint" />
            <mxPoint x="392" y="66.50999999999999" as="targetPoint" />
            <Array as="points" />
          </mxGeometry>
        </mxCell>
        <mxCell id="F0Z5WMHJScBI__uV08e7-40" value="" style="ellipse;whiteSpace=wrap;html=1;" vertex="1" parent="1">
          <mxGeometry x="394" y="27.00999999999999" width="80" height="80" as="geometry" />
        </mxCell>
        <mxCell id="F0Z5WMHJScBI__uV08e7-41" value="" style="edgeStyle=none;curved=1;rounded=0;orthogonalLoop=1;jettySize=auto;html=1;fontSize=12;startSize=8;endSize=8;" edge="1" parent="1">
          <mxGeometry relative="1" as="geometry">
            <mxPoint x="474" y="67.49000000000001" as="sourcePoint" />
            <mxPoint x="-417" y="125" as="targetPoint" />
            <Array as="points">
              <mxPoint x="610" y="110.75" />
              <mxPoint x="364" y="131.75" />
            </Array>
          </mxGeometry>
        </mxCell>
        <mxCell id="F0Z5WMHJScBI__uV08e7-42" value="" style="edgeStyle=none;orthogonalLoop=1;jettySize=auto;html=1;rounded=0;fontSize=12;startSize=8;endSize=8;curved=1;" edge="1" parent="1">
          <mxGeometry width="140" relative="1" as="geometry">
            <mxPoint x="-212" y="125.75" as="sourcePoint" />
            <mxPoint x="-212" y="64.75" as="targetPoint" />
            <Array as="points" />
          </mxGeometry>
        </mxCell>
        <mxCell id="F0Z5WMHJScBI__uV08e7-43" value="" style="edgeStyle=none;orthogonalLoop=1;jettySize=auto;html=1;rounded=0;fontSize=12;startSize=8;endSize=8;curved=1;entryX=0;entryY=0.5;entryDx=0;entryDy=0;" edge="1" parent="1" target="F0Z5WMHJScBI__uV08e7-83">
          <mxGeometry width="140" relative="1" as="geometry">
            <mxPoint x="-407" y="-40" as="sourcePoint" />
            <mxPoint x="-415" y="732" as="targetPoint" />
            <Array as="points">
              <mxPoint x="-446" y="670" />
            </Array>
          </mxGeometry>
        </mxCell>
        <mxCell id="F0Z5WMHJScBI__uV08e7-54" value="" style="ellipse;whiteSpace=wrap;html=1;" vertex="1" parent="1">
          <mxGeometry x="-363" y="153.75" width="124" height="50.5" as="geometry" />
        </mxCell>
        <mxCell id="F0Z5WMHJScBI__uV08e7-55" value="" style="edgeStyle=none;orthogonalLoop=1;jettySize=auto;html=1;rounded=0;fontSize=12;startSize=8;endSize=8;curved=1;" edge="1" parent="1">
          <mxGeometry width="140" relative="1" as="geometry">
            <mxPoint x="-237" y="177.5" as="sourcePoint" />
            <mxPoint x="-166" y="177.5" as="targetPoint" />
            <Array as="points" />
          </mxGeometry>
        </mxCell>
        <mxCell id="F0Z5WMHJScBI__uV08e7-56" value="Identificador&lt;div&gt;&lt;br&gt;&lt;/div&gt;" style="rounded=0;whiteSpace=wrap;html=1;" vertex="1" parent="1">
          <mxGeometry x="-166" y="153.75" width="130" height="47.75" as="geometry" />
        </mxCell>
        <mxCell id="F0Z5WMHJScBI__uV08e7-57" value="" style="edgeStyle=none;orthogonalLoop=1;jettySize=auto;html=1;rounded=0;fontSize=12;startSize=8;endSize=8;curved=1;" edge="1" parent="1">
          <mxGeometry width="140" relative="1" as="geometry">
            <mxPoint x="-36" y="178.5" as="sourcePoint" />
            <mxPoint x="35" y="178.5" as="targetPoint" />
            <Array as="points" />
          </mxGeometry>
        </mxCell>
        <mxCell id="F0Z5WMHJScBI__uV08e7-58" value="" style="ellipse;whiteSpace=wrap;html=1;" vertex="1" parent="1">
          <mxGeometry x="37" y="139" width="80" height="80" as="geometry" />
        </mxCell>
        <mxCell id="F0Z5WMHJScBI__uV08e7-59" value="Tipo" style="rounded=0;whiteSpace=wrap;html=1;" vertex="1" parent="1">
          <mxGeometry x="190" y="155.12" width="130" height="47.75" as="geometry" />
        </mxCell>
        <mxCell id="F0Z5WMHJScBI__uV08e7-60" value="" style="edgeStyle=none;curved=1;rounded=0;orthogonalLoop=1;jettySize=auto;html=1;fontSize=12;startSize=8;endSize=8;" edge="1" parent="1" target="F0Z5WMHJScBI__uV08e7-59">
          <mxGeometry relative="1" as="geometry">
            <mxPoint x="117" y="180.87" as="sourcePoint" />
          </mxGeometry>
        </mxCell>
        <mxCell id="F0Z5WMHJScBI__uV08e7-61" value="" style="edgeStyle=none;orthogonalLoop=1;jettySize=auto;html=1;rounded=0;fontSize=12;startSize=8;endSize=8;curved=1;" edge="1" parent="1">
          <mxGeometry width="140" relative="1" as="geometry">
            <mxPoint x="320" y="178.51" as="sourcePoint" />
            <mxPoint x="391" y="178.51" as="targetPoint" />
            <Array as="points" />
          </mxGeometry>
        </mxCell>
        <mxCell id="F0Z5WMHJScBI__uV08e7-62" value="" style="ellipse;whiteSpace=wrap;html=1;" vertex="1" parent="1">
          <mxGeometry x="393" y="139.01" width="80" height="80" as="geometry" />
        </mxCell>
        <mxCell id="F0Z5WMHJScBI__uV08e7-63" value="" style="edgeStyle=none;curved=1;rounded=0;orthogonalLoop=1;jettySize=auto;html=1;fontSize=12;startSize=8;endSize=8;" edge="1" parent="1">
          <mxGeometry relative="1" as="geometry">
            <mxPoint x="473" y="179.49" as="sourcePoint" />
            <mxPoint x="-421" y="314" as="targetPoint" />
            <Array as="points">
              <mxPoint x="609" y="222.75" />
              <mxPoint x="449" y="312" />
            </Array>
          </mxGeometry>
        </mxCell>
        <mxCell id="F0Z5WMHJScBI__uV08e7-64" value="" style="edgeStyle=none;orthogonalLoop=1;jettySize=auto;html=1;rounded=0;fontSize=12;startSize=8;endSize=8;curved=1;exitX=0;exitY=0.5;exitDx=0;exitDy=0;" edge="1" parent="1" source="F0Z5WMHJScBI__uV08e7-66">
          <mxGeometry width="140" relative="1" as="geometry">
            <mxPoint x="-213" y="237.75" as="sourcePoint" />
            <mxPoint x="-213" y="176.75" as="targetPoint" />
            <Array as="points">
              <mxPoint x="-223" y="274" />
            </Array>
          </mxGeometry>
        </mxCell>
        <mxCell id="F0Z5WMHJScBI__uV08e7-65" value="" style="edgeStyle=none;orthogonalLoop=1;jettySize=auto;html=1;rounded=0;fontSize=12;startSize=8;endSize=8;curved=1;entryX=1;entryY=0.5;entryDx=0;entryDy=0;" edge="1" parent="1" target="F0Z5WMHJScBI__uV08e7-66">
          <mxGeometry width="140" relative="1" as="geometry">
            <mxPoint x="-3" y="180" as="sourcePoint" />
            <mxPoint x="-71" y="275" as="targetPoint" />
            <Array as="points">
              <mxPoint x="3" y="250" />
            </Array>
          </mxGeometry>
        </mxCell>
        <mxCell id="F0Z5WMHJScBI__uV08e7-66" value="" style="ellipse;whiteSpace=wrap;html=1;" vertex="1" parent="1">
          <mxGeometry x="-147" y="215" width="80" height="80" as="geometry" />
        </mxCell>
        <mxCell id="F0Z5WMHJScBI__uV08e7-67" value="" style="edgeStyle=none;orthogonalLoop=1;jettySize=auto;html=1;rounded=0;fontSize=12;startSize=8;endSize=8;curved=1;" edge="1" parent="1">
          <mxGeometry width="140" relative="1" as="geometry">
            <mxPoint x="-212" y="314" as="sourcePoint" />
            <mxPoint x="-212" y="223" as="targetPoint" />
            <Array as="points" />
          </mxGeometry>
        </mxCell>
        <mxCell id="F0Z5WMHJScBI__uV08e7-68" value="" style="edgeStyle=none;orthogonalLoop=1;jettySize=auto;html=1;rounded=0;fontSize=12;startSize=8;endSize=8;curved=1;entryX=0;entryY=0.5;entryDx=0;entryDy=0;" edge="1" parent="1" target="F0Z5WMHJScBI__uV08e7-32">
          <mxGeometry width="140" relative="1" as="geometry">
            <mxPoint x="-409" y="67" as="sourcePoint" />
            <mxPoint x="-355" y="-31.25" as="targetPoint" />
            <Array as="points" />
          </mxGeometry>
        </mxCell>
        <mxCell id="F0Z5WMHJScBI__uV08e7-69" value="" style="edgeStyle=none;orthogonalLoop=1;jettySize=auto;html=1;rounded=0;fontSize=12;startSize=8;endSize=8;curved=1;entryX=0;entryY=0.5;entryDx=0;entryDy=0;" edge="1" parent="1">
          <mxGeometry width="140" relative="1" as="geometry">
            <mxPoint x="-418" y="177" as="sourcePoint" />
            <mxPoint x="-362" y="177.13" as="targetPoint" />
            <Array as="points" />
          </mxGeometry>
        </mxCell>
        <mxCell id="F0Z5WMHJScBI__uV08e7-70" value="" style="edgeStyle=none;orthogonalLoop=1;jettySize=auto;html=1;rounded=0;fontSize=12;startSize=8;endSize=8;curved=1;entryX=0;entryY=0.5;entryDx=0;entryDy=0;" edge="1" parent="1">
          <mxGeometry width="140" relative="1" as="geometry">
            <mxPoint x="-419" y="374" as="sourcePoint" />
            <mxPoint x="-363" y="374" as="targetPoint" />
            <Array as="points" />
          </mxGeometry>
        </mxCell>
        <mxCell id="F0Z5WMHJScBI__uV08e7-71" value="&lt;div&gt;Decalracion De Procedimiento&lt;/div&gt;" style="rounded=0;whiteSpace=wrap;html=1;" vertex="1" parent="1">
          <mxGeometry x="-363" y="351" width="230" height="47.75" as="geometry" />
        </mxCell>
        <mxCell id="F0Z5WMHJScBI__uV08e7-72" value="" style="edgeStyle=none;orthogonalLoop=1;jettySize=auto;html=1;rounded=0;fontSize=12;startSize=8;endSize=8;curved=1;" edge="1" parent="1">
          <mxGeometry width="140" relative="1" as="geometry">
            <mxPoint x="-133" y="374.38" as="sourcePoint" />
            <mxPoint x="-62" y="374.38" as="targetPoint" />
            <Array as="points" />
          </mxGeometry>
        </mxCell>
        <mxCell id="F0Z5WMHJScBI__uV08e7-73" value="" style="ellipse;whiteSpace=wrap;html=1;" vertex="1" parent="1">
          <mxGeometry x="-60" y="334.88" width="80" height="80" as="geometry" />
        </mxCell>
        <mxCell id="F0Z5WMHJScBI__uV08e7-76" value="" style="edgeStyle=none;curved=1;rounded=0;orthogonalLoop=1;jettySize=auto;html=1;fontSize=12;startSize=8;endSize=8;" edge="1" parent="1">
          <mxGeometry relative="1" as="geometry">
            <mxPoint x="20" y="375.25" as="sourcePoint" />
            <mxPoint x="-418" y="437" as="targetPoint" />
            <Array as="points">
              <mxPoint x="237" y="455" />
            </Array>
          </mxGeometry>
        </mxCell>
        <mxCell id="F0Z5WMHJScBI__uV08e7-77" value="" style="edgeStyle=none;orthogonalLoop=1;jettySize=auto;html=1;rounded=0;fontSize=12;startSize=8;endSize=8;curved=1;entryX=0;entryY=0.5;entryDx=0;entryDy=0;" edge="1" parent="1">
          <mxGeometry width="140" relative="1" as="geometry">
            <mxPoint x="-413" y="495.12" as="sourcePoint" />
            <mxPoint x="-366" y="495.12" as="targetPoint" />
            <Array as="points" />
          </mxGeometry>
        </mxCell>
        <mxCell id="F0Z5WMHJScBI__uV08e7-78" value="&lt;div&gt;Declaracion De Funcion&lt;/div&gt;" style="rounded=0;whiteSpace=wrap;html=1;" vertex="1" parent="1">
          <mxGeometry x="-366" y="472.12" width="230" height="47.75" as="geometry" />
        </mxCell>
        <mxCell id="F0Z5WMHJScBI__uV08e7-79" value="" style="edgeStyle=none;orthogonalLoop=1;jettySize=auto;html=1;rounded=0;fontSize=12;startSize=8;endSize=8;curved=1;" edge="1" parent="1">
          <mxGeometry width="140" relative="1" as="geometry">
            <mxPoint x="-136" y="495.5" as="sourcePoint" />
            <mxPoint x="-65" y="495.5" as="targetPoint" />
            <Array as="points" />
          </mxGeometry>
        </mxCell>
        <mxCell id="F0Z5WMHJScBI__uV08e7-80" value="" style="ellipse;whiteSpace=wrap;html=1;" vertex="1" parent="1">
          <mxGeometry x="-63" y="456" width="80" height="80" as="geometry" />
        </mxCell>
        <mxCell id="F0Z5WMHJScBI__uV08e7-81" value="" style="edgeStyle=none;curved=1;rounded=0;orthogonalLoop=1;jettySize=auto;html=1;fontSize=12;startSize=8;endSize=8;" edge="1" parent="1">
          <mxGeometry relative="1" as="geometry">
            <mxPoint x="17" y="496.37" as="sourcePoint" />
            <mxPoint x="-411" y="555.12" as="targetPoint" />
            <Array as="points">
              <mxPoint x="234" y="576.12" />
            </Array>
          </mxGeometry>
        </mxCell>
        <mxCell id="F0Z5WMHJScBI__uV08e7-83" value="&lt;div&gt;Declaracion De Funcion&lt;/div&gt;" style="rounded=0;whiteSpace=wrap;html=1;" vertex="1" parent="1">
          <mxGeometry x="-364" y="604" width="230" height="47.75" as="geometry" />
        </mxCell>
        <mxCell id="F0Z5WMHJScBI__uV08e7-85" value="" style="edgeStyle=none;orthogonalLoop=1;jettySize=auto;html=1;rounded=0;fontSize=12;startSize=8;endSize=8;curved=1;" edge="1" parent="1">
          <mxGeometry width="140" relative="1" as="geometry">
            <mxPoint x="-134" y="627.38" as="sourcePoint" />
            <mxPoint x="555" y="627" as="targetPoint" />
            <Array as="points" />
          </mxGeometry>
        </mxCell>
        <mxCell id="F0Z5WMHJScBI__uV08e7-86" value="Identificador&lt;div&gt;&lt;br&gt;&lt;/div&gt;" style="text;strokeColor=none;fillColor=none;html=1;align=center;verticalAlign=middle;whiteSpace=wrap;rounded=0;fontSize=16;" vertex="1" parent="1">
          <mxGeometry x="-519" y="751" width="51" height="29" as="geometry" />
        </mxCell>
        <mxCell id="F0Z5WMHJScBI__uV08e7-87" value="" style="edgeStyle=none;orthogonalLoop=1;jettySize=auto;html=1;rounded=0;fontSize=12;startSize=8;endSize=8;curved=1;entryX=0;entryY=0.5;entryDx=0;entryDy=0;" edge="1" parent="1">
          <mxGeometry width="140" relative="1" as="geometry">
            <mxPoint x="-442" y="759" as="sourcePoint" />
            <mxPoint x="-362" y="760" as="targetPoint" />
            <Array as="points" />
          </mxGeometry>
        </mxCell>
        <mxCell id="F0Z5WMHJScBI__uV08e7-88" value="Letra" style="rounded=0;whiteSpace=wrap;html=1;" vertex="1" parent="1">
          <mxGeometry x="-362" y="738" width="230" height="47.75" as="geometry" />
        </mxCell>
        <mxCell id="F0Z5WMHJScBI__uV08e7-89" value="" style="edgeStyle=none;orthogonalLoop=1;jettySize=auto;html=1;rounded=0;fontSize=12;startSize=8;endSize=8;curved=1;" edge="1" parent="1">
          <mxGeometry width="140" relative="1" as="geometry">
            <mxPoint x="-132" y="761.38" as="sourcePoint" />
            <mxPoint x="557" y="761" as="targetPoint" />
            <Array as="points" />
          </mxGeometry>
        </mxCell>
        <mxCell id="F0Z5WMHJScBI__uV08e7-90" value="Letra" style="rounded=0;whiteSpace=wrap;html=1;" vertex="1" parent="1">
          <mxGeometry x="33" y="798" width="230" height="47.75" as="geometry" />
        </mxCell>
        <mxCell id="F0Z5WMHJScBI__uV08e7-91" value="Letra" style="rounded=0;whiteSpace=wrap;html=1;" vertex="1" parent="1">
          <mxGeometry x="33" y="867" width="230" height="47.75" as="geometry" />
        </mxCell>
        <mxCell id="F0Z5WMHJScBI__uV08e7-93" value="" style="edgeStyle=none;orthogonalLoop=1;jettySize=auto;html=1;rounded=0;fontSize=12;startSize=8;endSize=8;curved=1;entryX=1;entryY=0.5;entryDx=0;entryDy=0;" edge="1" parent="1" target="F0Z5WMHJScBI__uV08e7-91">
          <mxGeometry width="140" relative="1" as="geometry">
            <mxPoint x="401" y="763" as="sourcePoint" />
            <mxPoint x="335" y="688" as="targetPoint" />
            <Array as="points">
              <mxPoint x="424" y="887" />
            </Array>
          </mxGeometry>
        </mxCell>
        <mxCell id="F0Z5WMHJScBI__uV08e7-96" value="" style="edgeStyle=none;orthogonalLoop=1;jettySize=auto;html=1;rounded=0;fontSize=12;startSize=8;endSize=8;curved=1;entryX=1;entryY=0.5;entryDx=0;entryDy=0;" edge="1" parent="1" target="F0Z5WMHJScBI__uV08e7-90">
          <mxGeometry width="140" relative="1" as="geometry">
            <mxPoint x="401" y="764" as="sourcePoint" />
            <mxPoint x="273" y="901" as="targetPoint" />
            <Array as="points">
              <mxPoint x="422" y="886" />
            </Array>
          </mxGeometry>
        </mxCell>
        <mxCell id="F0Z5WMHJScBI__uV08e7-97" value="" style="edgeStyle=none;orthogonalLoop=1;jettySize=auto;html=1;rounded=0;fontSize=12;startSize=8;endSize=8;curved=1;exitX=0;exitY=0.5;exitDx=0;exitDy=0;" edge="1" parent="1" source="F0Z5WMHJScBI__uV08e7-91">
          <mxGeometry width="140" relative="1" as="geometry">
            <mxPoint x="79" y="686" as="sourcePoint" />
            <mxPoint x="-96" y="764" as="targetPoint" />
            <Array as="points">
              <mxPoint x="-101" y="912" />
            </Array>
          </mxGeometry>
        </mxCell>
        <mxCell id="F0Z5WMHJScBI__uV08e7-98" value="" style="edgeStyle=none;orthogonalLoop=1;jettySize=auto;html=1;rounded=0;fontSize=12;startSize=8;endSize=8;curved=1;exitX=0;exitY=0.5;exitDx=0;exitDy=0;" edge="1" parent="1" source="F0Z5WMHJScBI__uV08e7-90">
          <mxGeometry width="140" relative="1" as="geometry">
            <mxPoint x="44.5" y="889" as="sourcePoint" />
            <mxPoint x="-97" y="765" as="targetPoint" />
            <Array as="points">
              <mxPoint x="-101" y="862" />
            </Array>
          </mxGeometry>
        </mxCell>
      </root>
    </mxGraphModel>
  </diagram>
</mxfile>
